<?xml version="1.0" encoding="UTF-8"?>
<svg id="Layer_2" xmlns="http://www.w3.org/2000/svg" version="1.1" viewBox="0 0 697.3 141.6">
  <!-- Generator: Adobe Illustrator 29.4.0, SVG Export Plug-In . SVG Version: 2.1.0 Build 152)  -->
  <defs>
    <style>
      .st0 {
        fill: #084ce8;
      }

      .st1 {
        fill: #1b1c24;
      }
    </style>
  </defs>
  <g id="Layer_1-2">
    <g>
      <g>
        <path class="st1" d="M199.6.1h53.7v19.1h-32.8v18.8h31.1v17.9h-31.1v38.3h-20.9V.1h0Z"/>
        <path class="st1" d="M263.8,25.3h20.5v69h-20.5V25.3Z"/>
        <path class="st1" d="M296.7,25.3h20.5v8.8c3.8-5.8,10.6-10.1,20.4-10.1,13.9,0,25.7,8.6,25.7,29.7v40.6h-20.5v-37c0-8.6-4.4-15-12.8-15s-12.7,6.4-12.7,15v37h-20.5V25.3h0Z"/>
        <path class="st1" d="M372.4,59.8c0-24,17.2-35.8,32.8-35.8s19.3,6.6,20.4,9.2h.4v-7.8h20.5v69h-20.5v-7.8h-.4c-1.1,2.5-8.2,9.2-20.4,9.2s-32.8-11.8-32.8-35.8ZM409.4,77.3c9,0,17.1-6.2,17.1-17.5s-8.1-17.5-17.1-17.5-16.8,6.4-16.8,17.5,8.1,17.5,16.8,17.5Z"/>
        <path class="st1" d="M458.9,25.3h20.5v8.8c3.8-5.8,10.6-10.1,20.4-10.1,13.9,0,25.7,8.6,25.7,29.7v40.6h-20.5v-37c0-8.6-4.4-15-12.8-15s-12.7,6.4-12.7,15v37h-20.5V25.3h0Z"/>
        <path class="st1" d="M534.6,59.7c0-23.4,18.3-35.7,36.7-35.7s22.9,5.6,29.6,17l-14.8,9.7c-3.3-4.5-8.2-8.1-14.8-8.1s-16.4,6.6-16.4,17.1,7.5,17.4,16.4,17.4,11.5-3.6,14.8-8.1l14.8,9.7c-6.8,11.2-17.5,17-29.6,17-18.4,0-36.7-12.3-36.7-36h0Z"/>
        <path class="st1" d="M603,60c0-23.4,17.3-36,35.1-36s38,12.2,33.6,43.8h-49c2.8,7.4,9.7,11.1,18.8,11.1s11.5-1.5,16.5-5.3l9.3,9.7c-5.7,7.2-15.5,12.3-28,12.3-19,0-36.2-13-36.2-35.7h0ZM653.7,53c-1.5-8-8.5-11.8-15.3-11.8s-13.8,3.6-16,11.8h31.4Z"/>
      </g>
      <g>
        <g>
          <g>
            <path class="st1" d="M78.5,94.4c-5,0-9.3,3.3-11,8-3.3,9.1-12,15.6-22.2,15.6s-19-6.5-22.2-15.6c-1.7-4.7-6-8-11-8h-.6c-8,0-13.5,7.9-10.9,15.4,6.4,18.5,24,31.8,44.6,31.8s38.2-13.3,44.6-31.8c2.6-7.5-2.9-15.4-10.9-15.4h-.6Z"/>
            <path class="st1" d="M94.4,47.2v-.2c0-.2,0-.2,0,0v-1.5C93.4,18.9,70.6-2,43.4.2,20.3,2,1.7,20.7.1,43.8c-1.9,27.6,19.8,50.5,47,50.6h0c6.5,0,11.8-5.3,11.8-11.8s-5.4-11.7-11.8-11.8h0c-13.9,0-25-12.1-23.5-26.3,1.2-10.8,9.9-19.5,20.7-20.8,14.2-1.6,26.2,9.4,26.3,23.3v.2h0v1.8c.2,2.8.5,5.5,1.1,8.1l22.8-6.8c-.1-1-.2-2-.2-3.1h0Z"/>
          </g>
          <path class="st0" d="M150.1,81.8h0s0,0,.1-.1c.4-.3.8-.7,1.1-1.1.1-.1.3-.3.4-.4,0,0,.1-.1.2-.2.5-.5,1-1.1,1.5-1.6,0,0,0,0,0,0,2.1-2.4,3.9-5,5.5-7.7,0,0,0,0,0,0,.4-.6.7-1.3,1.1-1.9,0-.1.1-.2.2-.3.3-.6.6-1.2.8-1.8,0-.2.2-.4.2-.6.2-.5.4-1,.6-1.5.1-.3.2-.5.3-.8.2-.4.3-.9.5-1.3l.3-1c.1-.4.2-.8.4-1.2.1-.4.2-.8.3-1.2,0-.4.2-.7.3-1.1,0-.4.2-.8.3-1.2,0-.4.1-.7.2-1.1,0-.4.1-.8.2-1.2,0-.4.1-.8.2-1.2s.1-.8.1-1.2c0-.5,0-.9.1-1.4,0-.3,0-.6,0-1,0-1.8,0-3.7,0-5.5,0-.2,0-.5,0-.7-.2-2-.5-4.1-.9-6.1,0-.1,0-.3,0-.4-.2-1-.5-2-.8-3h0s0,0,0,0c-.3-.9-.5-1.7-.9-2.6,0,0,0-.1,0-.2-.3-.7-.6-1.5-.9-2.2,0,0,0-.1,0-.2-1.1-3.8-1.9-9.1-.2-13.1,3.1-7.3-1.9-14.2-11.5-11.8-5.3,1.3-10.6.6-14.2-.3-1.5-.6-3.1-1.1-4.7-1.6h0c0,0,0,0,0,0h0s0,0,0,0c-.9-.3-1.9-.5-2.9-.7,0,0-.2,0-.2,0-1-.2-2-.4-3-.5,0,0-.1,0-.2,0-.9-.1-1.8-.2-2.7-.3-.2,0-.5,0-.7,0-1,0-2-.1-2.9-.1h0c-.8,0-1.7,0-2.6,0-.3,0-.6,0-.9,0-.5,0-1.1,0-1.6.2-.4,0-.7,0-1.1.1-.5,0-1,.1-1.5.2-.4,0-.7.1-1.1.2-.5.1-1.1.2-1.6.3-.3,0-.6.1-.9.2-.8.2-1.6.4-2.4.6-.3,0-.5.2-.8.2-.6.2-1.1.4-1.7.6-.3,0-.5.2-.8.3-.6.2-1.1.4-1.7.7-.2,0-.4.2-.6.3-.6.3-1.2.6-1.9.9-.1,0-.3.1-.4.2-3.8,1.9-7.4,4.4-10.7,7.5,0,0-.1.1-.2.2-.4.4-.8.7-1.1,1.1-.2.2-.3.4-.5.6,0,0-.2.2-.2.2-.5.6-1.1,1.1-1.6,1.7,0,0-.1.1-.2.2-.5.6-1.1,1.3-1.6,1.9,0,0,0,0,0,0h0c-14.2,18.5-12.9,45.1,4.1,62.1,18,18,47,18.4,65.5,1.2h0ZM101.3,63.9c-8-8-9-20.3-3.2-29.4h0c.2-.3.5-.7.7-1,0-.1.2-.3.3-.4.4-.5.8-1.1,1.3-1.6.2-.2.3-.4.5-.6.3-.3.5-.5.8-.8.3-.3.5-.5.8-.7.4-.3.8-.6,1.2-.9.3-.2.5-.4.8-.6.3-.2.6-.4.9-.6.4-.3.9-.5,1.3-.8.2-.1.5-.3.8-.4.4-.2.9-.4,1.3-.6.2,0,.4-.2.6-.2.6-.2,1.1-.4,1.7-.6.2,0,.3-.1.5-.2.6-.2,1.3-.4,1.9-.5,0,0,0,0,0,0,.6-.1,1.3-.2,1.9-.3.2,0,.3,0,.5,0,.7,0,1.3-.1,2-.1s1.6,0,2.3.1c.3,0,.7.1,1,.1.4,0,.8.1,1.2.2.4,0,.8.2,1.2.3.4,0,.7.2,1.1.3.4.1.7.3,1.1.4.4.1.7.2,1.1.4.3.1.7.3,1,.5.4.2.7.3,1.1.5.3.2.6.4.9.5.4.2.7.4,1,.6.3.2.7.5,1,.7.3.2.6.4.9.6.6.5,1.1,1,1.6,1.5,0,0,.1.1.2.2.5.5,1,1.1,1.5,1.6.2.3.4.6.7.9.2.3.5.6.7,1,.2.3.4.7.6,1,.2.3.4.6.6.9.2.4.4.7.5,1.1.2.3.3.7.5,1,.1.4.3.7.4,1.1.1.4.3.7.4,1.1.1.4.2.7.3,1.1,0,.4.2.8.3,1.1,0,.4.1.9.2,1.3,0,.3.1.7.1,1,0,.8.1,1.5.1,2.3h0c0,.7,0,1.4-.1,2,0,.1,0,.3,0,.4,0,.7-.2,1.3-.3,2,0,.1,0,.2,0,.3-.1.6-.3,1.2-.4,1.8,0,0,0,.2,0,.2-.2.6-.4,1.2-.6,1.8,0,.2-.2.4-.2.6-.2.5-.4,1-.7,1.5-.1.3-.3.5-.4.8-.2.3-.4.7-.6,1-.2.4-.5.8-.8,1.1-.2.2-.3.5-.5.7-.3.4-.7.9-1,1.3-.2.2-.4.4-.5.6-.4.4-.8.8-1.3,1.2-.2.2-.3.3-.5.4-.3.2-.6.5-.9.7h0c-9.3,7.3-22.7,6.7-31.2-1.9h0Z"/>
        </g>
        <rect class="st0" x="676.8" y="77.8" width="20.5" height="17.9"/>
        <rect class="st0" x="263.8" y=".1" width="20.5" height="17.9"/>
      </g>
    </g>
  </g>
</svg>