<?xml version="1.0" standalone="no"?>
<!DOCTYPE svg PUBLIC "-//W3C//DTD SVG 1.1//EN" "http://www.w3.org/Graphics/SVG/1.1/DTD/svg11.dtd">
<svg xmlns="http://www.w3.org/2000/svg" id="Layer_1" data-name="Layer 1" viewBox="0 0 530.3 160.39" width="530.2999877929688" height="160.38999938964844">
  <defs>
    <style>
      .cls-1 {
        fill: #70bc0e;
      }

      .cls-1, .cls-2 {
        stroke-width: 0px;
      }

      .cls-2 {
        fill: #003733;
      }
    </style>
  </defs>
  <g>
    <path class="cls-2" d="M221.51.12h20.9v74.96h34.93v19.24h-55.83V.12Z"/>
    <path class="cls-2" d="M287.13,25.32h20.51v68.99h-20.51V25.32Z"/>
    <path class="cls-2" d="M363.21,55.31c0-8.76-4.76-13-10.98-13s-11.64,4.25-11.64,13v39.01h-20.51V25.32h20.51v8.49c3.7-5.71,10.06-9.82,19.18-9.82,8.07,0,15.08,3.45,19.45,10.88,4.23-6.24,11.64-10.88,22.49-10.88,14.55,0,25.14,9.29,25.14,30.52v39.8h-20.51v-39.01c0-8.76-4.76-13-10.98-13-6.62,0-11.64,4.25-11.64,13v39.01h-20.51v-39.01Z"/>
    <path class="cls-2" d="M435.98,59.95c0-23.35,17.33-35.96,35.06-35.96s37.97,12.21,33.61,43.78h-48.95c2.78,7.43,9.66,11.15,18.79,11.15,6.09,0,11.51-1.46,16.54-5.31l9.26,9.69c-5.69,7.16-15.48,12.34-28.05,12.34-19.05,0-36.25-13-36.25-35.69ZM486.65,53.05c-1.46-7.96-8.47-11.81-15.35-11.81s-13.76,3.58-16.01,11.81h31.36Z"/>
  </g>
  <g>
    <g>
      <g>
        <path class="cls-2" d="M88.89,106.92c-5.66,0-10.52,3.69-12.43,9.02-3.7,10.33-13.57,17.72-25.17,17.72s-21.47-7.39-25.17-17.72c-1.91-5.33-6.77-9.02-12.43-9.02h-.62c-9.03,0-15.27,8.91-12.33,17.45,7.23,20.96,27.13,36.01,50.55,36.01s43.31-15.05,50.55-36.01c2.95-8.54-3.3-17.45-12.33-17.45h-.62Z"/>
        <path class="cls-2" d="M53.46,80.19v26.73c7.38,0,13.37-5.98,13.37-13.37,0-7.38-5.98-13.37-13.37-13.37Z"/>
        <path class="cls-2" d="M50.37,26.9c16.08-1.8,29.69,10.67,29.81,26.35,0,.07,0,.14,0,.21h.02l.05,2.02c.12,3.13.52,6.19,1.15,9.16l25.79-7.67c-.15-1.15-.26-2.32-.26-3.51,0-.08,0-.15,0-.23,0-.18,0-.17,0-.09l-.04-1.67C105.77,21.45,79.94-2.25,49.14.17,23,2.22,1.96,23.47.13,49.62c-2.18,31.26,22.53,57.3,53.33,57.3v-26.73c-15.77,0-28.35-13.65-26.56-29.78,1.36-12.24,11.24-22.13,23.47-23.5Z"/>
      </g>
      <path class="cls-1" d="M170.04,92.62h0s.1-.09.15-.14c.43-.4.86-.79,1.27-1.21.16-.16.3-.32.46-.48.06-.06.12-.13.18-.19.57-.59,1.13-1.2,1.68-1.81.02-.03.04-.05.07-.08,2.39-2.72,4.46-5.62,6.2-8.66.02-.04.04-.07.06-.11.41-.73.81-1.46,1.19-2.2.06-.12.12-.24.18-.37.33-.66.65-1.32.95-1.99.1-.22.19-.44.28-.66.25-.58.49-1.15.72-1.73.12-.31.24-.62.35-.93.18-.5.37-1,.54-1.5.13-.38.25-.77.37-1.15.14-.44.27-.89.4-1.34.12-.43.24-.87.35-1.31.11-.41.21-.83.3-1.24.11-.46.21-.92.3-1.39.08-.41.16-.82.23-1.23.08-.46.17-.93.24-1.4.07-.44.12-.88.18-1.32.06-.44.11-.88.16-1.32.05-.53.09-1.06.13-1.59.03-.36.06-.72.08-1.08.1-2.06.08-4.13-.05-6.2-.02-.27-.04-.54-.06-.8-.19-2.33-.52-4.64-1.01-6.93-.03-.15-.07-.3-.1-.45-.25-1.14-.54-2.28-.87-3.41h0s0-.02-.02-.03c-.29-.99-.62-1.97-.97-2.95-.02-.07-.05-.13-.08-.2-.3-.83-.62-1.64-.96-2.46-.04-.08-.06-.17-.1-.25-1.23-4.34-2.19-10.27-.23-14.89,3.51-8.28-2.1-16.14-13.05-13.4-6.05,1.51-11.97.67-16.05-.38-1.74-.7-3.52-1.29-5.31-1.8,0,0-.01,0-.02,0-.06-.03-.09-.04-.09-.04v.02s-.04-.01-.06-.02c-1.08-.3-2.16-.56-3.25-.8-.09-.02-.18-.04-.27-.06-1.14-.24-2.29-.44-3.44-.6-.06,0-.12-.01-.18-.02-1.02-.14-2.05-.24-3.08-.32-.27-.02-.55-.04-.82-.06-1.11-.07-2.22-.12-3.33-.12,0,0,0,0,0,0,0,0-.01,0-.02,0-.97,0-1.93.03-2.9.09-.35.02-.69.05-1.03.07-.62.05-1.23.1-1.85.16-.41.04-.81.09-1.22.15-.55.07-1.11.16-1.66.25-.41.07-.82.13-1.23.21-.6.11-1.2.24-1.79.38-.33.07-.67.14-1,.22-.89.22-1.78.46-2.67.73-.29.09-.58.19-.87.28-.64.2-1.28.41-1.91.64-.29.1-.58.22-.86.33-.64.24-1.28.5-1.91.77-.24.1-.48.21-.72.31-.71.31-1.41.64-2.1.99-.15.08-.31.15-.46.23-4.32,2.19-8.4,5.01-12.11,8.45-.07.06-.14.13-.21.2-.43.4-.87.8-1.29,1.22-.21.21-.4.42-.6.64-.09.09-.18.19-.27.28-.61.64-1.19,1.28-1.76,1.94-.07.08-.13.15-.2.23-.61.71-1.19,1.43-1.75,2.16-.01.02-.03.04-.05.06h0c-16.1,20.96-14.56,51.11,4.63,70.31,20.41,20.41,53.22,20.86,74.19,1.35ZM114.75,72.37c-9.04-9.04-10.24-22.95-3.61-33.29h0c.25-.38.52-.76.79-1.14.11-.16.23-.31.34-.46.46-.61.95-1.2,1.46-1.78.19-.21.37-.43.57-.63.3-.31.6-.62.91-.92.3-.29.61-.56.93-.84.42-.37.85-.72,1.3-1.06.29-.22.59-.44.88-.65.33-.24.67-.47,1.02-.69.49-.31,1-.61,1.51-.89.28-.15.57-.3.85-.44.51-.25,1.01-.49,1.53-.71.21-.09.42-.18.63-.26.62-.24,1.25-.46,1.88-.66.2-.06.39-.12.59-.18.73-.21,1.46-.39,2.2-.54.03,0,.07-.01.1-.02.72-.14,1.45-.24,2.18-.31.18-.02.37-.04.55-.05.76-.07,1.53-.11,2.3-.11.89,0,1.77.05,2.64.13.39.04.78.11,1.17.17.47.07.95.12,1.42.22.44.09.88.21,1.31.32.41.1.82.19,1.22.31.42.13.84.29,1.26.44.41.15.82.28,1.21.44.39.16.76.35,1.14.53.41.19.83.38,1.23.59.36.19.71.42,1.06.63.4.24.8.46,1.18.72.38.26.75.55,1.12.82.33.24.66.47.98.73.64.52,1.26,1.08,1.86,1.68.07.07.13.13.2.2.59.6,1.15,1.21,1.67,1.85.26.32.5.66.74.99.27.37.56.73.81,1.11.26.39.49.79.73,1.19.21.35.43.69.62,1.05.22.4.4.83.6,1.24.18.38.37.75.52,1.13.17.4.3.82.45,1.23.15.41.31.82.43,1.24.12.41.22.83.32,1.25.11.43.23.85.31,1.28.1.48.15.98.22,1.47.05.37.12.74.16,1.12.09.87.13,1.75.13,2.64,0,0,0,.02,0,.02,0,.76-.04,1.52-.11,2.27-.01.15-.02.3-.04.45-.08.74-.18,1.48-.32,2.21-.03.13-.06.27-.08.4-.14.69-.31,1.37-.5,2.04-.03.09-.05.18-.07.27-.2.67-.44,1.33-.69,1.98-.09.23-.18.46-.27.69-.24.58-.51,1.14-.79,1.7-.15.29-.31.58-.47.87-.21.39-.44.77-.68,1.14-.27.44-.56.87-.85,1.29-.19.27-.38.53-.58.79-.38.5-.77.98-1.18,1.44-.2.23-.4.46-.61.68-.46.49-.94.96-1.44,1.42-.19.17-.37.34-.56.51-.33.29-.67.57-1.02.84h0c-10.49,8.23-25.7,7.53-35.36-2.13Z"/>
    </g>
    <rect class="cls-1" x="509.77" y="77.85" width="20.53" height="17.88"/>
    <rect class="cls-1" x="287.12" y=".13" width="20.53" height="17.88"/>
  </g>
</svg>