<svg width="25" height="24" viewBox="0 0 25 24" fill="none" xmlns="http://www.w3.org/2000/svg">
<g clip-path="url(#clip0_424_22)">
<path d="M15.8961 18.75L20.4723 14.241C21.0707 13.6431 21.3682 12.8077 21.2825 11.9662L20.4805 4.09303L12.5867 3.29072C11.7451 3.20517 10.9097 3.50302 10.3119 4.10175L2.2862 12.101C1.18975 13.1992 1.19012 14.9781 2.28709 16.0759L8.44398 22.2379C9.54184 23.3367 11.3226 23.3634 12.4214 22.2656" stroke="white" stroke-width="1.875" stroke-miterlimit="10" stroke-linecap="round" stroke-linejoin="round"/>
<path d="M17.2046 7.35938C17.2046 7.35938 23.5919 7.02338 23.5891 2.2816V2.24428C23.5891 1.52255 23.0041 0.937502 22.2823 0.937502C22.2823 0.937502 18.9016 1.21875 18.0129 3.60938" stroke="white" stroke-width="1.875" stroke-miterlimit="10" stroke-linecap="round" stroke-linejoin="round"/>
<path d="M8.82953 15.9145L7.97974 16.7344" stroke="white" stroke-width="1.875" stroke-miterlimit="10" stroke-linecap="round" stroke-linejoin="round"/>
<path d="M15.0112 9.70314L14.0969 10.6473" stroke="white" stroke-width="1.875" stroke-miterlimit="10" stroke-linecap="round" stroke-linejoin="round"/>
<path d="M14.3908 13.0725C14.9387 12.5245 14.8966 11.6482 14.3495 11.101L13.775 10.5266C13.1093 9.86091 12.0566 9.84174 11.3899 10.5084L11.2418 10.6565C10.5752 11.3232 10.5515 12.4188 11.2171 13.0845L11.8246 13.692C12.4903 14.3577 12.5087 15.4186 11.842 16.0853L11.773 16.1543C11.1064 16.821 10.065 16.783 9.39929 16.1173L8.41205 15.1301C7.86488 14.5829 7.8346 13.7261 8.38257 13.1781" stroke="white" stroke-width="1.875" stroke-miterlimit="10" stroke-linecap="round" stroke-linejoin="round"/>
</g>
<defs>
<clipPath id="clip0_424_22">
<rect width="24" height="24" fill="white" transform="translate(0.526611)"/>
</clipPath>
</defs>
</svg>
